{
    "asset" : {
        "generator" : "Khronos glTF Blender I/O v3.3.32",
        "version" : "2.0"
    },
    "scene" : 0,
    "scenes" : [
        {
            "name" : "Scene",
            "nodes" : [
                22,
                23
            ]
        }
    ],
    "nodes" : [
        {
            "mesh" : 0,
            "name" : "Cabeza.001",
            "rotation" : [
                0.7071067094802856,
                0,
                0,
                0.7071068286895752
            ],
            "scale" : [
                1.2852261066436768,
                1.2765859365463257,
                1.2765859365463257
            ],
            "translation" : [
                0,
                1.5983426570892334,
                -0.01213174406439066
            ]
        },
        {
            "mesh" : 1,
            "name" : "Cuerpo"
        },
        {
            "mesh" : 2,
            "name" : "Cuerpo.001"
        },
        {
            "name" : "Cuerpo.002"
        },
        {
            "name" : "export.000",
            "rotation" : [
                0.7071067094802856,
                0,
                0,
                0.7071068286895752
            ],
            "scale" : [
                1.2765859365463257,
                1.2765859365463257,
                1.2765859365463257
            ],
            "translation" : [
                0,
                1.5983426570892334,
                -0.018975913524627686
            ]
        },
        {
            "mesh" : 3,
            "name" : "export.001",
            "rotation" : [
                0.7071067094802856,
                0,
                0,
                0.7071068286895752
            ],
            "scale" : [
                1.2765859365463257,
                1.2765859365463257,
                1.2765859365463257
            ],
            "translation" : [
                0,
                1.5983426570892334,
                -0.018975913524627686
            ]
        },
        {
            "name" : "neck",
            "rotation" : [
                0,
                -6.617444111563316e-24,
                3.308722450212111e-24,
                1
            ],
            "translation" : [
                3.74299227180245e-23,
                0.0259380042552948,
                0.2711200714111328
            ]
        },
        {
            "name" : "l_wrist",
            "rotation" : [
                0,
                -6.617444111563316e-24,
                3.308722450212111e-24,
                1
            ],
            "translation" : [
                0.2348049283027649,
                -0.00348498672246933,
                -1.3956530153791391e-08
            ]
        },
        {
            "children" : [
                7
            ],
            "name" : "l_elbow",
            "rotation" : [
                0,
                -6.617444111563316e-24,
                3.308722450212111e-24,
                1
            ],
            "translation" : [
                0.25552603602409363,
                0.002775002270936966,
                -1.478741751270718e-08
            ]
        },
        {
            "children" : [
                8
            ],
            "name" : "l_shoulder",
            "rotation" : [
                0,
                -6.617444111563316e-24,
                3.308722450212111e-24,
                1
            ],
            "translation" : [
                0.12222100794315338,
                0.04862300306558609,
                0.20931993424892426
            ]
        },
        {
            "name" : "r_wrist",
            "rotation" : [
                0,
                -6.617444111563316e-24,
                3.308722450212111e-24,
                1
            ],
            "translation" : [
                -0.2348049283027649,
                -0.003483988344669342,
                -1.395676818560787e-08
            ]
        },
        {
            "children" : [
                10
            ],
            "name" : "r_elbow",
            "rotation" : [
                0,
                -6.617444111563316e-24,
                3.308722450212111e-24,
                1
            ],
            "translation" : [
                -0.25552600622177124,
                0.002775002270936966,
                -1.478741751270718e-08
            ]
        },
        {
            "children" : [
                11
            ],
            "name" : "r_shoulder",
            "rotation" : [
                0,
                -6.617444111563316e-24,
                3.308722450212111e-24,
                1
            ],
            "translation" : [
                -0.12222100794315338,
                0.04862300306558609,
                0.20931993424892426
            ]
        },
        {
            "children" : [
                6,
                9,
                12
            ],
            "name" : "spine",
            "rotation" : [
                0,
                -7.252923635538586e-24,
                2.2424783688251325e-17,
                1
            ],
            "translation" : [
                4.101619321506959e-18,
                -0.0005469904281198978,
                0.16220176219940186
            ]
        },
        {
            "name" : "l_ankle",
            "rotation" : [
                7.105427357601002e-15,
                5.3163804558734447e-17,
                9.251610428475505e-16,
                1
            ],
            "translation" : [
                7.450580596923828e-09,
                0.017902005463838577,
                -0.3879010081291199
            ]
        },
        {
            "children" : [
                14
            ],
            "name" : "l_knee",
            "rotation" : [
                7.105427357601002e-15,
                -7.085873221512884e-09,
                7.084259845413499e-09,
                1
            ],
            "translation" : [
                7.556246295337132e-09,
                0.017642999067902565,
                -0.39420703053474426
            ]
        },
        {
            "children" : [
                15
            ],
            "name" : "l_thigh",
            "rotation" : [
                -0.5017672777175903,
                -0.49822404980659485,
                -0.5017696022987366,
                0.49822643399238586
            ],
            "translation" : [
                -0.0010207711020484567,
                -0.12259718775749207,
                0.08148044347763062
            ]
        },
        {
            "name" : "r_ankle",
            "rotation" : [
                7.105427357601002e-15,
                2.5900209501672472e-17,
                1.7581611952646888e-15,
                1
            ],
            "translation" : [
                -7.450580596923828e-09,
                0.017902005463838577,
                -0.3879010081291199
            ]
        },
        {
            "children" : [
                17
            ],
            "name" : "r_knee",
            "rotation" : [
                7.105427357601002e-15,
                -7.085873665602094e-09,
                7.084262509948758e-09,
                1
            ],
            "translation" : [
                -7.344914898510524e-09,
                0.017642993479967117,
                -0.39420703053474426
            ]
        },
        {
            "children" : [
                18
            ],
            "name" : "r_thigh",
            "rotation" : [
                -0.5017672777175903,
                -0.49822404980659485,
                -0.5017696022987366,
                0.49822643399238586
            ],
            "translation" : [
                -0.001020782976411283,
                -0.12259643524885178,
                -0.08148157596588135
            ]
        },
        {
            "children" : [
                16,
                19
            ],
            "name" : "hip",
            "rotation" : [
                0.5017673373222351,
                0.498224139213562,
                0.5017695426940918,
                0.49822649359703064
            ],
            "translation" : [
                4.077133948194777e-18,
                8.98361918189039e-09,
                0.018361685797572136
            ]
        },
        {
            "children" : [
                13,
                20
            ],
            "name" : "root",
            "rotation" : [
                -0.7071068286895752,
                -1.585671485295162e-17,
                -1.5856703272423043e-17,
                0.7071068286895752
            ],
            "translation" : [
                -4.0771029289218064e-18,
                0.9880684018135071,
                0.00034500478068366647
            ]
        },
        {
            "children" : [
                0,
                1,
                2,
                3,
                4,
                5,
                21
            ],
            "name" : "Armature",
            "scale" : [
                3.7463419437408447,
                3.7463419437408447,
                3.7463419437408447
            ],
            "translation" : [
                0,
                0,
                -0.043147530406713486
            ]
        },
        {
            "mesh" : 4,
            "name" : "Cube",
            "scale" : [
                0.011992794461548328,
                0.011992794461548328,
                0.011992794461548328
            ],
            "translation" : [
                0.006055167876183987,
                0,
                -0.16884112358093262
            ]
        }
    ],
    "materials" : [
        {
            "doubleSided" : true,
            "name" : "1m4g3n-texura-An1we.png",
            "pbrMetallicRoughness" : {}
        },
        {
            "doubleSided" : true,
            "emissiveFactor" : [
                0.017641952261328697,
                0.017641952261328697,
                0.017641952261328697
            ],
            "name" : "Borde",
            "pbrMetallicRoughness" : {
                "baseColorFactor" : [
                    0,
                    0,
                    0,
                    1
                ]
            }
        }
    ],
    "meshes" : [
        {
            "name" : "Cabeza.002",
            "primitives" : [
                {
                    "attributes" : {
                        "POSITION" : 0,
                        "NORMAL" : 1,
                        "TEXCOORD_0" : 2,
                        "COLOR_0" : 3
                    },
                    "indices" : 4,
                    "material" : 0
                },
                {
                    "attributes" : {
                        "POSITION" : 5,
                        "NORMAL" : 6,
                        "TEXCOORD_0" : 7,
                        "COLOR_0" : 8
                    },
                    "indices" : 9,
                    "material" : 1
                }
            ]
        },
        {
            "name" : "Cuerpo",
            "primitives" : [
                {
                    "attributes" : {
                        "POSITION" : 10,
                        "NORMAL" : 11,
                        "TEXCOORD_0" : 12
                    },
                    "indices" : 13,
                    "material" : 0
                }
            ]
        },
        {
            "name" : "Cuerpo.005",
            "primitives" : [
                {
                    "attributes" : {
                        "POSITION" : 14,
                        "NORMAL" : 15,
                        "TEXCOORD_0" : 16
                    },
                    "indices" : 17,
                    "material" : 0
                }
            ]
        },
        {
            "name" : "export.001",
            "primitives" : [
                {
                    "attributes" : {
                        "POSITION" : 18,
                        "NORMAL" : 19,
                        "TEXCOORD_0" : 20
                    },
                    "indices" : 21,
                    "material" : 0
                }
            ]
        },
        {
            "name" : "Cube.001",
            "primitives" : [
                {
                    "attributes" : {
                        "POSITION" : 22,
                        "NORMAL" : 23,
                        "TEXCOORD_0" : 24
                    },
                    "indices" : 25,
                    "material" : 0
                }
            ]
        }
    ],
    "accessors" : [
        {
            "bufferView" : 0,
            "componentType" : 5126,
            "count" : 450,
            "max" : [
                0.09279143810272217,
                0.1024443656206131,
                0.12680494785308838
            ],
            "min" : [
                -0.09279143810272217,
                -0.05109696462750435,
                -0.05215871334075928
            ],
            "type" : "VEC3"
        },
        {
            "bufferView" : 1,
            "componentType" : 5126,
            "count" : 450,
            "type" : "VEC3"
        },
        {
            "bufferView" : 2,
            "componentType" : 5126,
            "count" : 450,
            "type" : "VEC2"
        },
        {
            "bufferView" : 3,
            "componentType" : 5123,
            "count" : 450,
            "normalized" : true,
            "type" : "VEC4"
        },
        {
            "bufferView" : 4,
            "componentType" : 5123,
            "count" : 1485,
            "type" : "SCALAR"
        },
        {
            "bufferView" : 5,
            "componentType" : 5126,
            "count" : 450,
            "max" : [
                0.09461894631385803,
                0.10433437675237656,
                0.12880373001098633
            ],
            "min" : [
                -0.09461894631385803,
                -0.05243074521422386,
                -0.0535661056637764
            ],
            "type" : "VEC3"
        },
        {
            "bufferView" : 6,
            "componentType" : 5126,
            "count" : 450,
            "type" : "VEC3"
        },
        {
            "bufferView" : 7,
            "componentType" : 5126,
            "count" : 450,
            "type" : "VEC2"
        },
        {
            "bufferView" : 8,
            "componentType" : 5123,
            "count" : 450,
            "normalized" : true,
            "type" : "VEC4"
        },
        {
            "bufferView" : 9,
            "componentType" : 5123,
            "count" : 1485,
            "type" : "SCALAR"
        },
        {
            "bufferView" : 10,
            "componentType" : 5126,
            "count" : 1244,
            "max" : [
                0.3574415445327759,
                1.4660001993179321,
                0.11372073739767075
            ],
            "min" : [
                -0.34828710556030273,
                0.0035200559068471193,
                -0.12197844684123993
            ],
            "type" : "VEC3"
        },
        {
            "bufferView" : 11,
            "componentType" : 5126,
            "count" : 1244,
            "type" : "VEC3"
        },
        {
            "bufferView" : 12,
            "componentType" : 5126,
            "count" : 1244,
            "type" : "VEC2"
        },
        {
            "bufferView" : 13,
            "componentType" : 5123,
            "count" : 3846,
            "type" : "SCALAR"
        },
        {
            "bufferView" : 14,
            "componentType" : 5126,
            "count" : 118,
            "max" : [
                0.1761225014925003,
                1.0074821710586548,
                0.12847821414470673
            ],
            "min" : [
                -0.1558869481086731,
                0.7413085699081421,
                -0.15039639174938202
            ],
            "type" : "VEC3"
        },
        {
            "bufferView" : 15,
            "componentType" : 5126,
            "count" : 118,
            "type" : "VEC3"
        },
        {
            "bufferView" : 16,
            "componentType" : 5126,
            "count" : 118,
            "type" : "VEC2"
        },
        {
            "bufferView" : 17,
            "componentType" : 5123,
            "count" : 234,
            "type" : "SCALAR"
        },
        {
            "bufferView" : 18,
            "componentType" : 5126,
            "count" : 1268,
            "max" : [
                0.12690246105194092,
                0.12450195848941803,
                0.25864624977111816
            ],
            "min" : [
                -0.11206082999706268,
                -0.16227224469184875,
                -0.1287473440170288
            ],
            "type" : "VEC3"
        },
        {
            "bufferView" : 19,
            "componentType" : 5126,
            "count" : 1268,
            "type" : "VEC3"
        },
        {
            "bufferView" : 20,
            "componentType" : 5126,
            "count" : 1268,
            "type" : "VEC2"
        },
        {
            "bufferView" : 21,
            "componentType" : 5123,
            "count" : 4698,
            "type" : "SCALAR"
        },
        {
            "bufferView" : 22,
            "componentType" : 5126,
            "count" : 536,
            "max" : [
                0.495172381401062,
                434.85870361328125,
                40.83372116088867
            ],
            "min" : [
                -1.5048484802246094,
                303.86480712890625,
                12.851091384887695
            ],
            "type" : "VEC3"
        },
        {
            "bufferView" : 23,
            "componentType" : 5126,
            "count" : 536,
            "type" : "VEC3"
        },
        {
            "bufferView" : 24,
            "componentType" : 5126,
            "count" : 536,
            "type" : "VEC2"
        },
        {
            "bufferView" : 25,
            "componentType" : 5123,
            "count" : 804,
            "type" : "SCALAR"
        }
    ],
    "bufferViews" : [
        {
            "buffer" : 0,
            "byteLength" : 5400,
            "byteOffset" : 0,
            "target" : 34962
        },
        {
            "buffer" : 0,
            "byteLength" : 5400,
            "byteOffset" : 5400,
            "target" : 34962
        },
        {
            "buffer" : 0,
            "byteLength" : 3600,
            "byteOffset" : 10800,
            "target" : 34962
        },
        {
            "buffer" : 0,
            "byteLength" : 3600,
            "byteOffset" : 14400,
            "target" : 34962
        },
        {
            "buffer" : 0,
            "byteLength" : 2970,
            "byteOffset" : 18000,
            "target" : 34963
        },
        {
            "buffer" : 0,
            "byteLength" : 5400,
            "byteOffset" : 20972,
            "target" : 34962
        },
        {
            "buffer" : 0,
            "byteLength" : 5400,
            "byteOffset" : 26372,
            "target" : 34962
        },
        {
            "buffer" : 0,
            "byteLength" : 3600,
            "byteOffset" : 31772,
            "target" : 34962
        },
        {
            "buffer" : 0,
            "byteLength" : 3600,
            "byteOffset" : 35372,
            "target" : 34962
        },
        {
            "buffer" : 0,
            "byteLength" : 2970,
            "byteOffset" : 38972,
            "target" : 34963
        },
        {
            "buffer" : 0,
            "byteLength" : 14928,
            "byteOffset" : 41944,
            "target" : 34962
        },
        {
            "buffer" : 0,
            "byteLength" : 14928,
            "byteOffset" : 56872,
            "target" : 34962
        },
        {
            "buffer" : 0,
            "byteLength" : 9952,
            "byteOffset" : 71800,
            "target" : 34962
        },
        {
            "buffer" : 0,
            "byteLength" : 7692,
            "byteOffset" : 81752,
            "target" : 34963
        },
        {
            "buffer" : 0,
            "byteLength" : 1416,
            "byteOffset" : 89444,
            "target" : 34962
        },
        {
            "buffer" : 0,
            "byteLength" : 1416,
            "byteOffset" : 90860,
            "target" : 34962
        },
        {
            "buffer" : 0,
            "byteLength" : 944,
            "byteOffset" : 92276,
            "target" : 34962
        },
        {
            "buffer" : 0,
            "byteLength" : 468,
            "byteOffset" : 93220,
            "target" : 34963
        },
        {
            "buffer" : 0,
            "byteLength" : 15216,
            "byteOffset" : 93688,
            "target" : 34962
        },
        {
            "buffer" : 0,
            "byteLength" : 15216,
            "byteOffset" : 108904,
            "target" : 34962
        },
        {
            "buffer" : 0,
            "byteLength" : 10144,
            "byteOffset" : 124120,
            "target" : 34962
        },
        {
            "buffer" : 0,
            "byteLength" : 9396,
            "byteOffset" : 134264,
            "target" : 34963
        },
        {
            "buffer" : 0,
            "byteLength" : 6432,
            "byteOffset" : 143660,
            "target" : 34962
        },
        {
            "buffer" : 0,
            "byteLength" : 6432,
            "byteOffset" : 150092,
            "target" : 34962
        },
        {
            "buffer" : 0,
            "byteLength" : 4288,
            "byteOffset" : 156524,
            "target" : 34962
        },
        {
            "buffer" : 0,
            "byteLength" : 1608,
            "byteOffset" : 160812,
            "target" : 34963
        }
    ],
    "buffers" : [
        {
            "byteLength" : 162420,
            "uri" : "data:application/octet-stream;base64,"
        }
    ]
}
